<mxfile host="app.diagrams.net" modified="2023-11-20T21:24:09.740Z" agent="Mozilla/5.0 (Windows NT 10.0; Win64; x64; rv:109.0) Gecko/20100101 Firefox/119.0" version="22.1.3" etag="jUOat6d8QR1MC9D1JSi4" type="github">
  <diagram name="Page-1" id="8VY837orhS6qWutK0BFP">
    <mxGraphModel>
      <root>
        <mxCell id="0" />
        <mxCell id="1" parent="0" />
      </root>
    </mxGraphModel>
  </diagram>
</mxfile>
